<svg width="187" height="37" viewBox="0 0 187 37" fill="none" xmlns="http://www.w3.org/2000/svg">
<path d="M16.718 33.5532C16.7214 34.4964 16.599 35.4358 16.354 36.3467C7.16486 35.3781 0 27.6466 0 18.2153C0.00873141 16.7184 0.18498 15.2272 0.525455 13.7695C1.49723 15.5912 2.95489 18.0602 4.53284 19.2741C7.24558 21.3316 12.4669 24.7392 12.4669 24.7392C13.1339 25.2835 13.7442 25.8938 14.2886 26.5609C15.8556 28.5555 16.7107 31.0167 16.718 33.5532Z" fill="white"/>
<path d="M36.4305 18.2156C36.4299 22.7321 34.7527 27.0876 31.724 30.438C28.6952 33.7884 24.5305 35.8952 20.0369 36.3501C19.4866 34.239 19.5608 32.0137 20.2505 29.944C20.9403 27.8743 22.2158 26.0493 23.9225 24.6904C23.9225 24.6904 29.1849 21.2907 31.8565 19.2253C33.4392 18.0114 34.8921 15.5424 35.8639 13.7207C36.2363 15.1901 36.4266 16.6997 36.4305 18.2156Z" fill="white"/>
<path d="M33.9203 8.98671C32.8283 16.3542 26.1889 22.0202 18.2152 22.0202C10.2416 22.0202 3.60223 16.3542 2.51017 9.02153C4.11173 6.27941 6.40286 4.00402 9.15596 2.4214C11.9091 0.838785 15.0283 0.00401471 18.2039 1.44451e-05C21.3795 -0.00398582 24.5008 0.822923 27.2579 2.3986C30.015 3.97428 32.3119 6.24388 33.9203 8.98197V8.98671Z" fill="url(#paint0_linear)"/>
<path d="M56.4706 14.8047H52.574V13.6113C52.574 13.0526 52.5233 12.6981 52.4236 12.5446C52.3677 12.4662 52.2923 12.4038 52.2049 12.3635C52.1174 12.3233 52.021 12.3066 51.9251 12.3151C51.8098 12.3106 51.6955 12.3378 51.5945 12.3936C51.4935 12.4494 51.4097 12.5317 51.3521 12.6316C51.2033 12.9204 51.136 13.2444 51.1575 13.5686C51.1575 14.1067 51.2303 14.5182 51.3775 14.7857C51.5246 15.0532 51.9108 15.3871 52.5629 15.7717C54.4305 16.8796 55.6064 17.7891 56.0907 18.5003C56.575 19.2114 56.8177 20.3578 56.8188 21.9395C56.8188 23.0885 56.6842 23.9358 56.4152 24.4813C56.1461 25.0268 55.6265 25.4831 54.8562 25.8503C54.0123 26.2347 53.0927 26.424 52.1656 26.4042C51.044 26.4042 50.086 26.1932 49.2915 25.7712C48.4969 25.3491 47.9768 24.8073 47.7309 24.1457C47.4861 23.4894 47.3632 22.5562 47.3622 21.346V20.2903H51.2587V22.2528C51.2587 22.8574 51.3115 23.2462 51.417 23.4193C51.4826 23.5105 51.5712 23.5826 51.6739 23.6282C51.7765 23.6738 51.8894 23.6913 52.001 23.6788C52.1248 23.6855 52.2481 23.6584 52.3576 23.6004C52.4672 23.5424 52.5589 23.4557 52.623 23.3496C52.7779 23.0485 52.8484 22.7111 52.8272 22.3731C52.8272 21.4235 52.6979 20.802 52.4394 20.5087C52.1809 20.2154 51.5304 19.7221 50.488 19.0289C49.4455 18.3388 48.7549 17.8376 48.4162 17.5253C48.0427 17.1609 47.7546 16.7182 47.5727 16.2291C47.3294 15.5521 47.2161 14.8352 47.2387 14.1162C47.2387 12.8796 47.397 11.9759 47.7135 11.405C48.0629 10.8031 48.6 10.3323 49.2424 10.0645C50.0485 9.72297 50.9185 9.55836 51.7937 9.58178C52.8836 9.58178 53.8122 9.75799 54.5792 10.1104C55.3463 10.4628 55.8549 10.906 56.105 11.4399C56.3529 11.9748 56.4774 12.8833 56.4785 14.1653L56.4706 14.8047Z" fill="white"/>
<path d="M62.0416 9.92041V13.5511C62.3672 13.2436 62.7472 12.9994 63.1622 12.831C63.5735 12.6697 64.0119 12.5885 64.4537 12.592C65.0961 12.5745 65.7269 12.7655 66.2516 13.1364C66.7465 13.4941 67.0487 13.9077 67.1585 14.3773C67.2682 14.8468 67.321 15.702 67.3167 16.9428V26.0623H63.2967V16.7466C63.2967 15.9758 63.2587 15.4804 63.1828 15.262C63.1397 15.1631 63.0686 15.079 62.9781 15.0203C62.8876 14.9616 62.7818 14.9308 62.6739 14.9318C62.5661 14.9328 62.4609 14.9656 62.3715 15.026C62.2822 15.0864 62.2126 15.1718 62.1714 15.2715C62.0849 15.4984 62.0416 15.9473 62.0416 16.6184V26.056H58.0153V9.92041H62.0416Z" fill="white"/>
<path d="M77.8179 17.4747V20.7145C77.8179 21.9026 77.7583 22.7747 77.6391 23.3307C77.5102 23.9024 77.2471 24.4351 76.8715 24.8849C76.4735 25.3701 75.9518 25.7386 75.3616 25.9517C74.6819 26.1916 73.9647 26.3079 73.2439 26.2951C72.479 26.3122 71.7158 26.2129 70.9807 26.0007C70.4274 25.8453 69.9285 25.5383 69.5404 25.1144C69.1885 24.699 68.9377 24.2076 68.8077 23.6789C68.662 23.1165 68.5892 22.2724 68.5892 21.1466V17.7644C68.5892 16.5352 68.7222 15.575 68.9881 14.8839C69.2647 14.1807 69.7735 13.5932 70.4299 13.2189C71.12 12.7968 72.0036 12.5858 73.0809 12.5858C73.8754 12.5663 74.666 12.7035 75.4075 12.9894C75.9368 13.1879 76.4126 13.5069 76.7972 13.9211C77.1818 14.3354 77.4646 14.8335 77.6233 15.3761C77.753 15.8382 77.8179 16.5378 77.8179 17.4747ZM73.7916 16.4777C73.7916 15.8003 73.7552 15.3698 73.6824 15.1973C73.6423 15.1079 73.5744 15.0339 73.4888 14.9863C73.4033 14.9386 73.3046 14.9199 73.2075 14.9329C73.1109 14.9231 73.0135 14.9432 72.9286 14.9905C72.8437 15.0377 72.7753 15.1099 72.7327 15.1973C72.6536 15.3745 72.614 15.8003 72.614 16.4777V22.4476C72.614 23.0722 72.6536 23.4795 72.7327 23.6694C72.7783 23.7546 72.8456 23.8261 72.9277 23.8768C73.0099 23.9275 73.1041 23.9554 73.2006 23.9579C73.2972 23.9603 73.3926 23.937 73.4772 23.8905C73.5619 23.844 73.6326 23.7759 73.6824 23.6932C73.7583 23.5212 73.7963 23.1519 73.7963 22.5853L73.7916 16.4777Z" fill="white"/>
<path d="M83.2387 12.8311L83.169 13.9991C83.4849 13.5658 83.8896 13.2048 84.356 12.9403C84.7909 12.7071 85.2776 12.5874 85.771 12.5921C86.3512 12.5782 86.92 12.755 87.3901 13.0954C87.8017 13.3701 88.1036 13.7807 88.2431 14.2555C88.356 14.6944 88.4125 15.4388 88.4125 16.4887V22.0597C88.4125 23.2626 88.3407 24.1178 88.1972 24.6253C88.0619 25.1233 87.7503 25.5552 87.3204 25.8408C86.8463 26.1529 86.2877 26.3115 85.7203 26.295C85.2365 26.2979 84.7599 26.1776 84.3355 25.9453C83.8785 25.6843 83.4811 25.3307 83.169 24.907V27.9395H79.1426V12.8311H83.2387ZM84.3861 16.677C84.3861 15.8603 84.356 15.3655 84.2959 15.1924C84.2358 15.0199 84.0696 14.9329 83.7974 14.9329C83.5251 14.9329 83.3605 15.0326 83.2846 15.232C83.2086 15.4314 83.169 15.9141 83.169 16.677V22.1579C83.169 22.9492 83.2102 23.4525 83.2893 23.6519C83.3312 23.7514 83.4045 23.8344 83.4979 23.8884C83.5913 23.9424 83.6998 23.9644 83.8069 23.9511C84.0664 23.9511 84.2278 23.8593 84.2912 23.6773C84.3545 23.4953 84.3861 23.0442 84.3861 22.3462V16.677Z" fill="white"/>
<path d="M89.8575 9.92041H94.0422C95.3653 9.92041 96.3677 10.0233 97.0493 10.229C97.731 10.4349 98.3162 10.8786 98.6985 11.4794C99.1205 12.1061 99.3316 13.1169 99.3316 14.5118C99.3316 15.4551 99.1838 16.1124 98.8884 16.4838C98.593 16.8552 98.0095 17.1407 97.1379 17.3401C98.1076 17.5606 98.7655 17.9246 99.1116 18.4321C99.4576 18.9397 99.6307 19.7194 99.6307 20.7714V22.267C99.6307 23.358 99.5062 24.1657 99.2572 24.6901C99.1424 24.9413 98.9775 25.1664 98.7726 25.3515C98.5676 25.5365 98.327 25.6777 98.0654 25.7663C97.5209 25.9594 96.4046 26.056 94.7164 26.056H89.8575V9.92041ZM94.0533 12.6806V16.2686C94.2316 16.2623 94.3709 16.2591 94.4711 16.2591C94.8826 16.2591 95.1464 16.1578 95.2625 15.9552C95.3785 15.7526 95.435 15.1723 95.4318 14.2143C95.4318 13.7094 95.3843 13.3549 95.2925 13.1523C95.2608 13.0672 95.2123 12.9894 95.1497 12.9235C95.0871 12.8577 95.0119 12.8052 94.9285 12.7693C94.6421 12.7003 94.3477 12.6705 94.0533 12.6806ZM94.0533 18.7803V23.2958C94.6441 23.2757 95.0208 23.1823 95.1833 23.0156C95.3458 22.8489 95.4276 22.4406 95.4286 21.7906V20.2855C95.4286 19.5938 95.3542 19.1776 95.2086 19.0288C95.063 18.88 94.6769 18.8009 94.0533 18.7803Z" fill="white"/>
<path d="M105.156 9.92041V12.0286H101.009V9.92041H105.156ZM105.156 12.831V26.056H101.009V12.831H105.156Z" fill="white"/>
<path d="M112.868 12.8311V15.7606L109.899 23.405H112.868V26.0561H106.003V23.2848L109.035 15.4821H106.311V12.8311H112.868Z" fill="white"/>
<path d="M122.776 14.8047H118.878V13.6113C118.878 13.0527 118.829 12.6981 118.729 12.5446C118.673 12.4652 118.597 12.4018 118.509 12.361C118.421 12.3201 118.324 12.3032 118.227 12.312C118.112 12.3075 117.998 12.3346 117.897 12.3904C117.796 12.4462 117.712 12.5285 117.654 12.6285C117.505 12.9173 117.438 13.2412 117.46 13.5654C117.46 14.1036 117.532 14.5151 117.678 14.7825C117.824 15.05 118.213 15.384 118.864 15.7686C120.733 16.8764 121.91 17.786 122.393 18.4971C122.876 19.2083 123.119 20.3547 123.121 21.9363C123.121 23.0854 122.986 23.9326 122.717 24.4781C122.448 25.0236 121.929 25.48 121.158 25.8472C120.315 26.2316 119.395 26.4209 118.468 26.4011C117.346 26.4011 116.388 26.1901 115.594 25.768C114.799 25.346 114.279 24.8042 114.033 24.1426C113.788 23.4863 113.665 22.553 113.664 21.3428V20.2872H117.563V22.2497C117.563 22.8543 117.615 23.2431 117.721 23.4161C117.786 23.5073 117.875 23.5794 117.978 23.625C118.08 23.6706 118.193 23.6881 118.305 23.6757C118.429 23.6824 118.552 23.6553 118.661 23.5973C118.771 23.5393 118.863 23.4526 118.927 23.3465C119.082 23.0453 119.152 22.7079 119.131 22.37C119.131 21.4204 119.002 20.7989 118.743 20.5056C118.485 20.2122 117.83 19.7237 116.779 19.04C115.736 18.3499 115.044 17.8488 114.706 17.5364C114.333 17.1715 114.046 16.7289 113.864 16.2402C113.621 15.5632 113.507 14.8463 113.53 14.1273C113.53 12.8907 113.688 11.987 114.005 11.4161C114.354 10.8101 114.892 10.3353 115.537 10.0645C116.343 9.72285 117.213 9.55824 118.088 9.58181C119.177 9.58181 120.105 9.75801 120.874 10.1104C121.642 10.4628 122.15 10.906 122.398 11.4399C122.648 11.9748 122.773 12.8833 122.773 14.1653L122.776 14.8047Z" fill="white"/>
<path d="M133.439 19.6776H128.227V22.5376C128.227 23.1358 128.27 23.5209 128.357 23.6929C128.404 23.7812 128.477 23.8531 128.566 23.8994C128.655 23.9456 128.756 23.9642 128.855 23.9525C129.161 23.9525 129.365 23.838 129.468 23.609C129.57 23.3801 129.623 22.9364 129.626 22.278V20.537H133.442V21.5135C133.457 22.1457 133.404 22.7777 133.283 23.3985C133.142 23.9116 132.896 24.3896 132.56 24.8024C132.187 25.2967 131.69 25.6838 131.12 25.9245C130.423 26.1941 129.679 26.3211 128.933 26.298C128.166 26.3118 127.403 26.1869 126.68 25.9293C126.095 25.729 125.572 25.3806 125.161 24.9179C124.808 24.5078 124.551 24.0246 124.408 23.503C124.268 22.987 124.199 22.2379 124.199 21.2556V17.3954C124.199 16.2347 124.357 15.3226 124.674 14.6589C124.992 13.9845 125.534 13.4418 126.209 13.1237C126.973 12.7571 127.813 12.575 128.66 12.5919C129.789 12.5919 130.721 12.8061 131.455 13.2345C132.146 13.6144 132.69 14.2144 133 14.939C133.297 15.646 133.444 16.6404 133.443 17.9224L133.439 19.6776ZM129.403 17.5252V16.5581C129.403 15.8723 129.366 15.4302 129.293 15.2318C129.263 15.1387 129.202 15.0584 129.121 15.0042C129.039 14.9499 128.942 14.9247 128.844 14.9327C128.565 14.9327 128.393 15.0182 128.326 15.1875C128.26 15.3569 128.227 15.8206 128.227 16.5581V17.5252H129.403Z" fill="white"/>
<path d="M138.782 12.8312L138.623 14.5721C139.207 13.326 140.051 12.6666 141.156 12.5938V17.2516C140.417 17.2516 139.876 17.3513 139.532 17.5508C139.373 17.6357 139.234 17.7541 139.124 17.8978C139.015 18.0415 138.938 18.2071 138.899 18.3832C138.82 18.7399 138.78 19.5587 138.78 20.8396V26.0625H134.755V12.8312H138.782Z" fill="white"/>
<path d="M150.76 12.8313L148.876 26.0563H143.615L141.591 12.8313H145.187L146.32 22.4857C146.409 21.7746 146.56 20.0442 146.774 17.2945C146.888 15.7593 147.019 14.2705 147.165 12.8281L150.76 12.8313Z" fill="white"/>
<path d="M155.495 9.92041V12.0286H151.348V9.92041H155.495ZM155.495 12.831V26.056H151.348V12.831H155.495Z" fill="white"/>
<path d="M165.839 17.8231H162.041V16.3021C162.041 15.7703 161.997 15.4095 161.911 15.2211C161.872 15.13 161.805 15.0534 161.72 15.0023C161.634 14.9512 161.535 14.9281 161.436 14.9363C161.341 14.9252 161.245 14.9432 161.16 14.9878C161.076 15.0324 161.006 15.1016 160.962 15.1863C160.881 15.352 160.841 15.7213 160.841 16.2942V22.5379C160.821 22.9008 160.883 23.2636 161.02 23.5999C161.063 23.7047 161.136 23.7943 161.23 23.8572C161.325 23.9201 161.436 23.9534 161.549 23.9529C161.669 23.9613 161.788 23.9297 161.889 23.863C161.989 23.7962 162.064 23.6982 162.103 23.5841C162.198 23.3388 162.247 22.8735 162.247 22.1897V20.615H165.835C165.842 21.4079 165.803 22.2005 165.719 22.989C165.627 23.5756 165.398 24.1323 165.051 24.6144C164.687 25.1601 164.178 25.5945 163.583 25.8695C162.875 26.1729 162.109 26.3176 161.34 26.2937C160.203 26.2937 159.303 26.0995 158.638 25.7112C157.994 25.3444 157.496 24.7671 157.228 24.0763C156.953 23.3747 156.815 22.3797 156.815 21.0914V17.3356C156.815 16.213 156.928 15.3657 157.154 14.7938C157.379 14.2219 157.861 13.7123 158.599 13.2649C159.337 12.8154 160.234 12.5912 161.289 12.5923C162.344 12.5933 163.241 12.8154 163.98 13.2586C164.724 13.7049 165.219 14.2668 165.464 14.9442C165.71 15.6216 165.835 16.5812 165.839 17.8231Z" fill="white"/>
<path d="M176.154 19.6776H170.942V22.5376C170.942 23.1358 170.985 23.5209 171.072 23.6929C171.119 23.7812 171.192 23.8531 171.281 23.8994C171.37 23.9456 171.471 23.9642 171.57 23.9525C171.875 23.9525 172.08 23.838 172.183 23.609C172.286 23.3801 172.339 22.9364 172.341 22.278V20.537H176.154V21.5135C176.169 22.1457 176.116 22.7777 175.996 23.3985C175.854 23.9113 175.608 24.3892 175.272 24.8024C174.899 25.2964 174.402 25.6834 173.832 25.9245C173.135 26.1941 172.392 26.3211 171.645 26.298C170.878 26.312 170.115 26.187 169.393 25.9293C168.807 25.7286 168.283 25.3803 167.872 24.9179C167.52 24.5073 167.263 24.0242 167.12 23.503C166.981 22.987 166.911 22.2379 166.911 21.2556V17.3954C166.911 16.2347 167.069 15.3226 167.386 14.6589C167.704 13.9845 168.247 13.4418 168.921 13.1237C169.685 12.7571 170.525 12.575 171.373 12.5919C172.502 12.5919 173.433 12.8061 174.168 13.2345C174.858 13.6144 175.402 14.2144 175.712 14.939C176.008 15.646 176.156 16.6404 176.156 17.9224L176.154 19.6776ZM172.118 17.5252V16.5581C172.118 15.8723 172.082 15.4302 172.009 15.2318C171.979 15.1387 171.918 15.0584 171.836 15.0042C171.755 14.9499 171.657 14.9247 171.559 14.9327C171.281 14.9327 171.108 15.0182 171.042 15.1875C170.975 15.3569 170.942 15.8206 170.942 16.5581V17.5252H172.118Z" fill="white"/>
<path d="M185.691 17.0571H182.124V16.3386C182.124 15.7276 182.089 15.3409 182.019 15.1784C181.95 15.0202 181.776 14.9331 181.496 14.9331C181.399 14.927 181.302 14.9442 181.214 14.9833C181.126 15.0224 181.048 15.0823 180.987 15.1579C180.86 15.3582 180.801 15.5939 180.818 15.8305C180.807 16.1305 180.836 16.4307 180.904 16.7232C181.008 16.9758 181.185 17.1921 181.412 17.3451C181.693 17.5709 182.274 17.9001 183.153 18.3328C184.321 18.9046 185.088 19.4427 185.454 19.9471C185.82 20.4515 186.003 21.1853 186.003 22.1486C186.003 23.2249 185.863 24.0373 185.584 24.586C185.279 25.1584 184.783 25.6062 184.183 25.8521C183.432 26.1665 182.623 26.3176 181.809 26.2953C180.91 26.3196 180.016 26.158 179.183 25.8205C178.455 25.5039 177.955 25.0719 177.683 24.5243C177.411 23.9766 177.274 23.1526 177.274 22.0521V21.419H180.842V22.2562C180.842 22.9685 180.886 23.429 180.976 23.6427C181.02 23.7455 181.095 23.8317 181.191 23.8887C181.287 23.9457 181.399 23.9704 181.51 23.9592C181.795 23.9592 181.994 23.888 182.108 23.7456C182.222 23.6031 182.278 23.3024 182.277 22.8434C182.277 22.2104 182.204 21.8147 182.057 21.6564C181.911 21.4981 181.13 21.0265 179.715 20.2415C178.533 19.5789 177.813 18.9759 177.553 18.4325C177.28 17.8273 177.147 17.1684 177.164 16.5047C177.164 15.4496 177.303 14.6704 177.583 14.1671C177.863 13.6638 178.338 13.2771 179.008 13.007C179.75 12.7212 180.54 12.5826 181.336 12.5986C182.095 12.5801 182.851 12.6931 183.572 12.9326C184.11 13.1051 184.596 13.408 184.989 13.8142C185.27 14.0973 185.475 14.4468 185.585 14.8302C185.669 15.3141 185.704 15.805 185.69 16.2958L185.691 17.0571Z" fill="white"/>
<defs>
<linearGradient id="paint0_linear" x1="2.51017" y1="11.011" x2="33.9203" y2="11.011" gradientUnits="userSpaceOnUse">
<stop stop-color="white"/>
<stop offset="1" stop-color="white"/>
</linearGradient>
</defs>
</svg>
