<svg width="35" height="38" viewBox="0 0 35 38" fill="none" xmlns="http://www.w3.org/2000/svg">
<path d="M1.34619 31.782L4.0385 31.1089V30.6714C3.62259 30.3872 3.2825 30.0055 3.04787 29.5597C2.81324 29.1139 2.69119 28.6175 2.69235 28.1138V24.2308C2.69235 23.1597 3.11782 22.1325 3.87518 21.3751C4.63254 20.6178 5.65974 20.1923 6.73081 20.1923C7.80187 20.1923 8.82907 20.6178 9.58643 21.3751C10.3438 22.1325 10.7693 23.1597 10.7693 24.2308V28.1104C10.771 28.6147 10.6492 29.1118 10.4145 29.5582C10.1799 30.0047 9.8395 30.3869 9.42311 30.6714V31.1089L12.2581 31.8177C12.9722 31.9961 13.6079 32.4041 14.0673 32.9791C14.5268 33.5541 14.7846 34.2642 14.801 35H16.827V27.5962C16.827 27.4177 16.8979 27.2465 17.0242 27.1203L18.5675 25.5769L15.0049 22.0143C14.8788 21.8881 14.8079 21.7169 14.8079 21.5385C14.8079 21.36 14.8788 21.1888 15.0049 21.0626L16.827 19.2406V8.07692H1.34619V31.782ZM6.73081 9.42308H15.4808V10.7692H6.73081V9.42308ZM4.0385 9.42308H5.38465V10.7692H4.0385V9.42308ZM2.69235 12.1154H15.4808V13.4615H2.69235V12.1154ZM2.69235 14.8077H15.4808V16.1538H2.69235V14.8077ZM2.69235 17.5H12.7885V18.8462H2.69235V17.5Z" fill="#3D619B"/>
<path d="M5.05136e-08 35.0828V37.6923H1.34615V35.6731H2.69231V37.6923H10.7692V35.6731H12.1154V37.6923H13.4615V35.0828C13.4616 34.6324 13.3112 34.195 13.0341 33.84C12.757 33.4849 12.3692 33.2327 11.9323 33.1235L8.58712 32.2875C8.44144 32.2512 8.31209 32.1672 8.21965 32.0489C8.1272 31.9306 8.07696 31.7848 8.07692 31.6346V30.2885C8.07624 30.1628 8.11074 30.0395 8.17652 29.9324C8.2423 29.8254 8.33673 29.7389 8.44913 29.6827C8.74212 29.5377 8.98865 29.3136 9.16079 29.0357C9.33292 28.7578 9.42379 28.4373 9.42308 28.1104V24.2308C9.42308 23.5167 9.13942 22.8319 8.63452 22.327C8.12961 21.8221 7.44481 21.5385 6.73077 21.5385C6.01673 21.5385 5.33193 21.8221 4.82702 22.327C4.32211 22.8319 4.03846 23.5167 4.03846 24.2308V28.1104C4.03712 28.4378 4.12769 28.7591 4.29986 29.0377C4.47203 29.3162 4.7189 29.5408 5.0124 29.6861C5.12429 29.742 5.21839 29.8279 5.28413 29.9344C5.34988 30.0408 5.38467 30.1634 5.38462 30.2885V31.6346C5.38457 31.7848 5.33434 31.9306 5.24189 32.0489C5.14944 32.1672 5.0201 32.2512 4.87442 32.2875L1.52923 33.1235C1.09234 33.2327 0.704526 33.4849 0.427439 33.84C0.150352 34.195 -0.000100646 34.6324 5.05136e-08 35.0828Z" fill="#3D619B"/>
<path d="M35 16.1538V13.5443C35.0001 13.094 34.8496 12.6565 34.5726 12.3015C34.2955 11.9465 33.9076 11.6943 33.4708 11.585L30.1256 10.749C29.9799 10.7127 29.8505 10.6287 29.7581 10.5104C29.6657 10.3921 29.6154 10.2463 29.6154 10.0962V8.75C29.6153 8.62492 29.6501 8.5023 29.7159 8.39589C29.7816 8.28949 29.8757 8.20351 29.9876 8.1476C30.2811 8.00238 30.528 7.77773 30.7001 7.49919C30.8723 7.22064 30.9629 6.89938 30.9615 6.57192V2.69231C30.9615 1.97826 30.6779 1.29346 30.173 0.788559C29.6681 0.283653 28.9833 0 28.2692 0C27.5552 0 26.8704 0.283653 26.3655 0.788559C25.8606 1.29346 25.5769 1.97826 25.5769 2.69231V6.57192C25.5756 6.89938 25.6661 7.22064 25.8383 7.49919C26.0105 7.77773 26.2574 8.00238 26.5509 8.1476C26.6627 8.20351 26.7568 8.28949 26.8226 8.39589C26.8883 8.5023 26.9231 8.62492 26.9231 8.75V10.0962C26.923 10.2463 26.8728 10.3921 26.7803 10.5104C26.6879 10.6287 26.5586 10.7127 26.4129 10.749L23.0677 11.585C22.6308 11.6943 22.243 11.9465 21.9659 12.3015C21.6888 12.6565 21.5384 13.094 21.5385 13.5443V16.1538H22.8846V14.1346H24.2308V16.1538H32.3077V14.1346H33.6538V16.1538H35Z" fill="#3D619B"/>
<path d="M30.9615 9.57048L33.6539 10.2436V2.69231H32.3077V6.57192C32.3094 7.07626 32.1876 7.57335 31.953 8.01978C31.7183 8.4662 31.3779 8.8484 30.9615 9.13298V9.57048Z" fill="#3D619B"/>
<path d="M33.6538 17.5H20.8654C20.6869 17.5 20.5157 17.4291 20.3894 17.3029C20.2632 17.1766 20.1923 17.0054 20.1923 16.8269V13.5443C20.1916 12.7935 20.4422 12.0641 20.9043 11.4723C21.3664 10.8806 22.0133 10.4605 22.7419 10.2792L25.5769 9.57048V9.13298C25.161 8.84872 24.8209 8.46706 24.5863 8.02126C24.3517 7.57547 24.2296 7.07906 24.2308 6.57529V2.69231H18.1731V19.5192C18.173 19.6977 18.1021 19.8689 17.9759 19.9951L16.4325 21.5385L19.9951 25.1011C20.1213 25.2273 20.1922 25.3984 20.1922 25.5769C20.1922 25.7554 20.1213 25.9266 19.9951 26.0528L18.1731 27.8748V29.6154H33.6538V17.5ZM22.8846 18.8462H24.2308V20.1923H22.8846V18.8462ZM29.6154 28.2692H21.5385V26.9231H29.6154V28.2692ZM32.3077 25.5769H21.5385V24.2308H32.3077V25.5769ZM32.3077 22.8846H21.5385V21.5385H32.3077V22.8846ZM32.3077 20.1923H25.5769V18.8462H32.3077V20.1923Z" fill="#3D619B"/>
</svg>
