<svg width="187" height="37" viewBox="0 0 187 37" fill="none" xmlns="http://www.w3.org/2000/svg">
<path d="M16.718 33.5533C16.7214 34.4965 16.599 35.4359 16.354 36.3468C7.16486 35.3781 0 27.6467 0 18.2154C0.00873141 16.7185 0.18498 15.2273 0.525455 13.7696C1.49723 15.5913 2.95489 18.0603 4.53284 19.2742C7.24558 21.3317 12.4669 24.7393 12.4669 24.7393C13.1339 25.2836 13.7442 25.8939 14.2886 26.561C15.8556 28.5556 16.7107 31.0168 16.718 33.5533Z" fill="#2C007E"/>
<path d="M36.4305 18.2155C36.4299 22.732 34.7527 27.0875 31.724 30.4379C28.6952 33.7884 24.5305 35.8951 20.0369 36.35C19.4866 34.239 19.5608 32.0136 20.2505 29.9439C20.9403 27.8742 22.2158 26.0492 23.9225 24.6903C23.9225 24.6903 29.1849 21.2907 31.8565 19.2253C33.4392 18.0113 34.8921 15.5423 35.8639 13.7206C36.2363 15.19 36.4266 16.6996 36.4305 18.2155Z" fill="#FF5900"/>
<path d="M33.9203 8.98671C32.8283 16.3542 26.1889 22.0202 18.2152 22.0202C10.2416 22.0202 3.60223 16.3542 2.51017 9.02153C4.11173 6.27941 6.40286 4.00402 9.15597 2.4214C11.9091 0.838785 15.0283 0.00401471 18.2039 1.44451e-05C21.3795 -0.00398582 24.5008 0.822923 27.2579 2.3986C30.015 3.97428 32.3119 6.24388 33.9203 8.98197V8.98671Z" fill="url(#paint0_linear)"/>
<path d="M56.4706 14.8047H52.574V13.6114C52.574 13.0527 52.5233 12.6981 52.4236 12.5446C52.3677 12.4662 52.2923 12.4038 52.2049 12.3636C52.1174 12.3233 52.021 12.3066 51.9251 12.3151C51.8098 12.3107 51.6955 12.3378 51.5945 12.3936C51.4935 12.4494 51.4097 12.5317 51.3521 12.6317C51.2033 12.9205 51.136 13.2444 51.1575 13.5686C51.1575 14.1067 51.2303 14.5182 51.3775 14.7857C51.5246 15.0532 51.9108 15.3871 52.5629 15.7717C54.4305 16.8796 55.6064 17.7891 56.0907 18.5003C56.575 19.2115 56.8177 20.3579 56.8188 21.9395C56.8188 23.0885 56.6842 23.9358 56.4152 24.4813C56.1461 25.0268 55.6265 25.4831 54.8562 25.8503C54.0123 26.2347 53.0927 26.4241 52.1656 26.4043C51.044 26.4043 50.086 26.1932 49.2915 25.7712C48.4969 25.3491 47.9768 24.8073 47.7309 24.1458C47.4861 23.4895 47.3632 22.5562 47.3622 21.346V20.2903H51.2587V22.2529C51.2587 22.8575 51.3115 23.2463 51.417 23.4193C51.4826 23.5105 51.5712 23.5826 51.6739 23.6282C51.7765 23.6738 51.8894 23.6913 52.001 23.6789C52.1248 23.6855 52.2481 23.6584 52.3576 23.6004C52.4672 23.5425 52.5589 23.4558 52.623 23.3497C52.7779 23.0485 52.8484 22.7111 52.8272 22.3731C52.8272 21.4235 52.6979 20.8021 52.4394 20.5087C52.1809 20.2154 51.5304 19.7221 50.488 19.0289C49.4455 18.3389 48.7549 17.8377 48.4162 17.5254C48.0427 17.161 47.7546 16.7183 47.5727 16.2291C47.3294 15.5521 47.2161 14.8353 47.2387 14.1162C47.2387 12.8796 47.397 11.9759 47.7135 11.4051C48.0629 10.8032 48.6 10.3323 49.2424 10.0645C50.0485 9.723 50.9185 9.55839 51.7937 9.58181C52.8836 9.58181 53.8122 9.75802 54.5792 10.1104C55.3463 10.4628 55.8549 10.906 56.105 11.4399C56.3529 11.9748 56.4774 12.8833 56.4785 14.1653L56.4706 14.8047Z" fill="black"/>
<path d="M62.0416 9.92047V13.5512C62.3672 13.2436 62.7472 12.9994 63.1622 12.831C63.5735 12.6697 64.0119 12.5886 64.4537 12.5921C65.0961 12.5745 65.7269 12.7655 66.2516 13.1365C66.7465 13.4942 67.0487 13.9078 67.1585 14.3773C67.2682 14.8469 67.321 15.7021 67.3167 16.9429V26.0624H63.2967V16.7466C63.2967 15.9759 63.2587 15.4805 63.1828 15.2621C63.1397 15.1631 63.0686 15.0791 62.9781 15.0203C62.8876 14.9616 62.7818 14.9308 62.6739 14.9319C62.5661 14.9329 62.4609 14.9656 62.3715 15.026C62.2822 15.0864 62.2126 15.1718 62.1714 15.2716C62.0849 15.4984 62.0416 15.9474 62.0416 16.6184V26.056H58.0153V9.92047H62.0416Z" fill="black"/>
<path d="M77.8179 17.4747V20.7145C77.8179 21.9025 77.7583 22.7746 77.6391 23.3307C77.5102 23.9023 77.2471 24.435 76.8715 24.8849C76.4735 25.37 75.9518 25.7386 75.3616 25.9516C74.6819 26.1915 73.9647 26.3079 73.2439 26.295C72.479 26.3121 71.7158 26.2129 70.9807 26.0007C70.4274 25.8452 69.9285 25.5383 69.5404 25.1144C69.1885 24.6989 68.9377 24.2075 68.8077 23.6789C68.662 23.1165 68.5892 22.2724 68.5892 21.1465V17.7643C68.5892 16.5351 68.7222 15.5749 68.9881 14.8838C69.2647 14.1806 69.7735 13.5931 70.4299 13.2188C71.12 12.7968 72.0036 12.5857 73.0809 12.5857C73.8754 12.5663 74.666 12.7034 75.4075 12.9893C75.9368 13.1878 76.4126 13.5068 76.7972 13.9211C77.1818 14.3353 77.4646 14.8335 77.6233 15.376C77.753 15.8382 77.8179 16.5377 77.8179 17.4747ZM73.7916 16.4776C73.7916 15.8002 73.7552 15.3697 73.6824 15.1972C73.6423 15.1078 73.5744 15.0338 73.4888 14.9862C73.4033 14.9386 73.3046 14.9199 73.2075 14.9329C73.1109 14.9231 73.0135 14.9431 72.9286 14.9904C72.8437 15.0377 72.7753 15.1098 72.7327 15.1972C72.6536 15.3745 72.614 15.8002 72.614 16.4776V22.4475C72.614 23.0722 72.6536 23.4794 72.7327 23.6694C72.7783 23.7545 72.8456 23.8261 72.9277 23.8767C73.0099 23.9274 73.1041 23.9554 73.2006 23.9578C73.2972 23.9602 73.3926 23.937 73.4772 23.8905C73.5619 23.844 73.6326 23.7759 73.6824 23.6931C73.7583 23.5211 73.7963 23.1518 73.7963 22.5852L73.7916 16.4776Z" fill="black"/>
<path d="M83.2387 12.8309L83.169 13.9989C83.4849 13.5656 83.8896 13.2046 84.356 12.9401C84.7909 12.707 85.2776 12.5872 85.771 12.5919C86.3512 12.578 86.92 12.7548 87.3901 13.0952C87.8017 13.3699 88.1036 13.7805 88.2431 14.2553C88.356 14.6942 88.4125 15.4386 88.4125 16.4885V22.0596C88.4125 23.2624 88.3407 24.1176 88.1972 24.6251C88.0619 25.1231 87.7503 25.555 87.3204 25.8406C86.8463 26.1527 86.2877 26.3113 85.7203 26.2949C85.2365 26.2978 84.7599 26.1774 84.3355 25.9451C83.8785 25.6842 83.4811 25.3305 83.169 24.9068V27.9393H79.1426V12.8309H83.2387ZM84.3861 16.6768C84.3861 15.8602 84.356 15.3653 84.2959 15.1923C84.2358 15.0197 84.0696 14.9327 83.7974 14.9327C83.5251 14.9327 83.3605 15.0324 83.2846 15.2318C83.2086 15.4312 83.169 15.914 83.169 16.6768V22.1577C83.169 22.949 83.2102 23.4523 83.2893 23.6518C83.3312 23.7512 83.4045 23.8342 83.4979 23.8882C83.5913 23.9422 83.6998 23.9642 83.8069 23.9509C84.0664 23.9509 84.2278 23.8591 84.2912 23.6771C84.3545 23.4951 84.3861 23.044 84.3861 22.346V16.6768Z" fill="black"/>
<path d="M89.8575 9.92047H94.0422C95.3653 9.92047 96.3677 10.0233 97.0493 10.2291C97.731 10.435 98.3162 10.8786 98.6985 11.4794C99.1205 12.1062 99.3316 13.117 99.3316 14.5119C99.3316 15.4552 99.1838 16.1125 98.8884 16.4839C98.593 16.8553 98.0095 17.1407 97.1379 17.3401C98.1076 17.5607 98.7655 17.9247 99.1116 18.4322C99.4576 18.9397 99.6307 19.7195 99.6307 20.7714V22.2671C99.6307 23.3581 99.5062 24.1658 99.2572 24.6902C99.1424 24.9414 98.9775 25.1664 98.7726 25.3515C98.5676 25.5366 98.327 25.6778 98.0654 25.7664C97.5209 25.9595 96.4046 26.056 94.7164 26.056H89.8575V9.92047ZM94.0533 12.6807V16.2687C94.2316 16.2623 94.3709 16.2592 94.4711 16.2592C94.8826 16.2592 95.1464 16.1579 95.2625 15.9553C95.3785 15.7527 95.435 15.1724 95.4318 14.2143C95.4318 13.7094 95.3843 13.3549 95.2925 13.1523C95.2608 13.0672 95.2123 12.9894 95.1497 12.9236C95.0871 12.8578 95.0119 12.8053 94.9285 12.7693C94.6421 12.7003 94.3477 12.6705 94.0533 12.6807ZM94.0533 18.7804V23.2958C94.6441 23.2758 95.0208 23.1824 95.1833 23.0157C95.3458 22.849 95.4276 22.4406 95.4286 21.7907V20.2855C95.4286 19.5939 95.3542 19.1777 95.2086 19.0289C95.063 18.8801 94.6769 18.801 94.0533 18.7804Z" fill="black"/>
<path d="M105.156 9.92047V12.0286H101.009V9.92047H105.156ZM105.156 12.831V26.056H101.009V12.831H105.156Z" fill="black"/>
<path d="M112.868 12.8311V15.7607L109.899 23.4051H112.868V26.0561H106.003V23.2848L109.035 15.4821H106.311V12.8311H112.868Z" fill="black"/>
<path d="M122.776 14.8047H118.878V13.6113C118.878 13.0527 118.829 12.6981 118.729 12.5446C118.673 12.4652 118.597 12.4018 118.509 12.361C118.421 12.3201 118.324 12.3032 118.227 12.312C118.112 12.3075 117.998 12.3346 117.897 12.3904C117.796 12.4462 117.712 12.5285 117.654 12.6285C117.505 12.9173 117.438 13.2412 117.46 13.5654C117.46 14.1036 117.532 14.5151 117.678 14.7825C117.824 15.05 118.213 15.384 118.864 15.7686C120.733 16.8764 121.91 17.786 122.393 18.4971C122.876 19.2083 123.119 20.3547 123.121 21.9363C123.121 23.0854 122.986 23.9326 122.717 24.4781C122.448 25.0236 121.929 25.48 121.158 25.8472C120.315 26.2316 119.395 26.4209 118.468 26.4011C117.346 26.4011 116.388 26.1901 115.594 25.768C114.799 25.346 114.279 24.8042 114.033 24.1426C113.788 23.4863 113.665 22.553 113.664 21.3428V20.2872H117.563V22.2497C117.563 22.8543 117.615 23.2431 117.721 23.4161C117.786 23.5073 117.875 23.5794 117.978 23.625C118.08 23.6706 118.193 23.6881 118.305 23.6757C118.429 23.6824 118.552 23.6553 118.661 23.5973C118.771 23.5393 118.863 23.4526 118.927 23.3465C119.082 23.0453 119.152 22.7079 119.131 22.37C119.131 21.4204 119.002 20.7989 118.743 20.5056C118.485 20.2122 117.83 19.7237 116.779 19.04C115.736 18.3499 115.044 17.8488 114.706 17.5364C114.333 17.1715 114.046 16.7289 113.864 16.2402C113.621 15.5632 113.507 14.8463 113.53 14.1273C113.53 12.8907 113.688 11.987 114.005 11.4161C114.354 10.8101 114.892 10.3353 115.537 10.0645C116.343 9.72285 117.213 9.55824 118.088 9.58181C119.177 9.58181 120.105 9.75801 120.874 10.1104C121.642 10.4628 122.15 10.906 122.398 11.4399C122.648 11.9748 122.773 12.8833 122.773 14.1653L122.776 14.8047Z" fill="black"/>
<path d="M133.439 19.6778H128.227V22.5377C128.227 23.136 128.27 23.5211 128.357 23.6931C128.404 23.7813 128.477 23.8532 128.566 23.8995C128.655 23.9458 128.756 23.9643 128.855 23.9526C129.161 23.9526 129.365 23.8382 129.468 23.6092C129.57 23.3802 129.623 22.9365 129.626 22.2781V20.5372H133.442V21.5137C133.457 22.1459 133.404 22.7779 133.283 23.3987C133.142 23.9117 132.896 24.3898 132.56 24.8025C132.187 25.2969 131.69 25.6839 131.12 25.9247C130.423 26.1943 129.679 26.3213 128.933 26.2982C128.166 26.312 127.403 26.187 126.68 25.9294C126.095 25.7292 125.572 25.3807 125.161 24.9181C124.808 24.508 124.551 24.0247 124.408 23.5031C124.268 22.9872 124.199 22.238 124.199 21.2557V17.3955C124.199 16.2349 124.357 15.3227 124.674 14.6591C124.992 13.9847 125.534 13.4419 126.209 13.1238C126.973 12.7573 127.813 12.5751 128.66 12.5921C129.789 12.5921 130.721 12.8062 131.455 13.2346C132.146 13.6146 132.69 14.2146 133 14.9392C133.297 15.6461 133.444 16.6406 133.443 17.9226L133.439 19.6778ZM129.403 17.5253V16.5583C129.403 15.8725 129.366 15.4304 129.293 15.232C129.263 15.1388 129.202 15.0586 129.121 15.0043C129.039 14.95 128.942 14.9248 128.844 14.9329C128.565 14.9329 128.393 15.0183 128.326 15.1877C128.26 15.357 128.227 15.8208 128.227 16.5583V17.5253H129.403Z" fill="black"/>
<path d="M138.782 12.8311L138.623 14.5721C139.207 13.3259 140.051 12.6665 141.156 12.5937V17.2516C140.417 17.2516 139.876 17.3513 139.532 17.5507C139.373 17.6357 139.234 17.7541 139.124 17.8978C139.015 18.0414 138.938 18.207 138.899 18.3832C138.82 18.7398 138.78 19.5586 138.78 20.8395V26.0624H134.755V12.8311H138.782Z" fill="black"/>
<path d="M150.76 12.8311L148.876 26.0561H143.615L141.591 12.8311H145.187L146.32 22.4855C146.409 21.7744 146.56 20.0439 146.774 17.2943C146.888 15.7591 147.019 14.2703 147.165 12.8279L150.76 12.8311Z" fill="black"/>
<path d="M155.495 9.92047V12.0286H151.348V9.92047H155.495ZM155.495 12.831V26.056H151.348V12.831H155.495Z" fill="black"/>
<path d="M165.839 17.8229H162.041V16.3019C162.041 15.7701 161.997 15.4093 161.911 15.2209C161.872 15.1297 161.805 15.0532 161.72 15.0021C161.634 14.951 161.535 14.9279 161.436 14.936C161.341 14.925 161.245 14.9429 161.16 14.9876C161.076 15.0322 161.006 15.1014 160.962 15.1861C160.881 15.3518 160.841 15.7211 160.841 16.294V22.5377C160.821 22.9006 160.883 23.2634 161.02 23.5997C161.063 23.7045 161.136 23.7941 161.23 23.857C161.325 23.9199 161.436 23.9532 161.549 23.9527C161.669 23.9611 161.788 23.9295 161.889 23.8628C161.989 23.796 162.064 23.698 162.103 23.5839C162.198 23.3386 162.247 22.8733 162.247 22.1895V20.6148H165.835C165.842 21.4077 165.803 22.2003 165.719 22.9888C165.627 23.5754 165.398 24.1321 165.051 24.6142C164.687 25.1599 164.178 25.5943 163.583 25.8693C162.875 26.1727 162.109 26.3174 161.34 26.2935C160.203 26.2935 159.303 26.0993 158.638 25.711C157.994 25.3442 157.496 24.7669 157.228 24.0761C156.953 23.3744 156.815 22.3795 156.815 21.0911V17.3354C156.815 16.2128 156.928 15.3655 157.154 14.7936C157.379 14.2217 157.861 13.7121 158.599 13.2647C159.337 12.8152 160.234 12.591 161.289 12.5921C162.344 12.5931 163.241 12.8152 163.98 13.2584C164.724 13.7047 165.219 14.2666 165.464 14.944C165.71 15.6214 165.835 16.581 165.839 17.8229Z" fill="black"/>
<path d="M176.154 19.6778H170.942V22.5377C170.942 23.136 170.985 23.5211 171.072 23.6931C171.119 23.7813 171.192 23.8532 171.281 23.8995C171.37 23.9458 171.471 23.9643 171.57 23.9526C171.875 23.9526 172.08 23.8382 172.183 23.6092C172.286 23.3802 172.339 22.9365 172.341 22.2781V20.5372H176.154V21.5137C176.169 22.1459 176.116 22.7779 175.996 23.3987C175.854 23.9114 175.608 24.3894 175.272 24.8025C174.899 25.2965 174.402 25.6836 173.832 25.9247C173.135 26.1943 172.392 26.3213 171.645 26.2982C170.878 26.3121 170.115 26.1872 169.393 25.9294C168.807 25.7288 168.283 25.3804 167.872 24.9181C167.52 24.5075 167.263 24.0244 167.12 23.5031C166.981 22.9872 166.911 22.238 166.911 21.2557V17.3955C166.911 16.2349 167.069 15.3227 167.386 14.6591C167.704 13.9847 168.247 13.4419 168.921 13.1238C169.685 12.7573 170.525 12.5751 171.373 12.5921C172.502 12.5921 173.433 12.8062 174.168 13.2346C174.858 13.6146 175.402 14.2146 175.712 14.9392C176.008 15.6461 176.156 16.6406 176.156 17.9226L176.154 19.6778ZM172.118 17.5253V16.5583C172.118 15.8725 172.082 15.4304 172.009 15.232C171.979 15.1388 171.918 15.0586 171.836 15.0043C171.755 14.95 171.657 14.9248 171.559 14.9329C171.281 14.9329 171.108 15.0183 171.042 15.1877C170.975 15.357 170.942 15.8208 170.942 16.5583V17.5253H172.118Z" fill="black"/>
<path d="M185.691 17.0569H182.124V16.3383C182.124 15.7274 182.089 15.3407 182.019 15.1782C181.95 15.02 181.776 14.9329 181.496 14.9329C181.399 14.9268 181.302 14.944 181.214 14.9831C181.126 15.0222 181.048 15.0821 180.987 15.1577C180.86 15.358 180.801 15.5937 180.818 15.8303C180.807 16.1303 180.836 16.4305 180.904 16.7229C181.008 16.9756 181.185 17.1919 181.412 17.3449C181.693 17.5707 182.274 17.8999 183.153 18.3325C184.321 18.9044 185.088 19.4425 185.454 19.9469C185.82 20.4512 186.003 21.1851 186.003 22.1484C186.003 23.2246 185.863 24.0371 185.584 24.5858C185.279 25.1582 184.783 25.606 184.183 25.8519C183.432 26.1663 182.623 26.3174 181.809 26.2951C180.91 26.3194 180.016 26.1578 179.183 25.8203C178.455 25.5037 177.955 25.0716 177.683 24.524C177.411 23.9764 177.274 23.1524 177.274 22.0519V21.4188H180.842V22.256C180.842 22.9682 180.886 23.4288 180.976 23.6425C181.02 23.7453 181.095 23.8315 181.191 23.8885C181.287 23.9455 181.399 23.9702 181.51 23.959C181.795 23.959 181.994 23.8878 182.108 23.7454C182.222 23.6029 182.278 23.3022 182.277 22.8432C182.277 22.2101 182.204 21.8145 182.057 21.6562C181.911 21.4979 181.13 21.0263 179.715 20.2413C178.533 19.5786 177.813 18.9756 177.553 18.4322C177.28 17.8271 177.147 17.1682 177.164 16.5045C177.164 15.4494 177.303 14.6702 177.583 14.1669C177.863 13.6636 178.338 13.2769 179.008 13.0068C179.75 12.721 180.54 12.5823 181.336 12.5984C182.095 12.5799 182.851 12.6928 183.572 12.9324C184.11 13.1049 184.596 13.4078 184.989 13.8139C185.27 14.0971 185.475 14.4466 185.585 14.83C185.669 15.3139 185.704 15.8048 185.69 16.2956L185.691 17.0569Z" fill="black"/>
<defs>
<linearGradient id="paint0_linear" x1="2.51017" y1="11.011" x2="33.9203" y2="11.011" gradientUnits="userSpaceOnUse">
<stop stop-color="#2C007E"/>
<stop offset="1" stop-color="#FF5900"/>
</linearGradient>
</defs>
</svg>
