<svg width="35" height="36" viewBox="0 0 35 36" fill="none" xmlns="http://www.w3.org/2000/svg">
<mask id="path-1-inside-1" fill="white">
<path d="M34.9535 24.0981C34.9549 24.079 34.9549 24.0598 34.9535 24.0407C34.9548 24.0216 34.9548 24.0024 34.9535 23.9833C34.9535 23.9833 34.9535 23.9833 34.9535 23.9614L28.3928 2.36554C28.3928 2.36554 28.3928 2.36554 28.3928 2.35187C28.3772 2.30303 28.3542 2.25691 28.3244 2.21519V2.19605C28.2968 2.16019 28.2646 2.12803 28.2287 2.10038L28.2069 2.08124C28.1673 2.05347 28.1241 2.03139 28.0784 2.01563H28.0456C27.9826 1.98857 27.9145 1.97551 27.846 1.97736C27.8169 1.97454 27.7876 1.97454 27.7585 1.97736L21.6352 3.11183C21.3247 2.08163 20.6454 1.20201 19.7272 0.641177C18.8089 0.0803412 17.7162 -0.122356 16.6579 0.071844C15.5996 0.266044 14.65 0.843515 13.9908 1.69383C13.3315 2.54415 13.0087 3.60764 13.0843 4.68095L6.97183 5.80448L6.91443 5.82088C6.90535 5.81968 6.89616 5.81968 6.88709 5.82088C6.83959 5.83757 6.79454 5.86055 6.75314 5.88922L6.73401 5.90562C6.69541 5.93603 6.66054 5.9709 6.63013 6.0095C6.60034 6.0522 6.57729 6.09922 6.56179 6.14892C6.56179 6.14892 6.56179 6.14892 6.56179 6.16259L0.00101262 27.7585C0.00101262 27.7585 0.00101262 27.7749 0.00101262 27.7803C-0.000285153 27.7994 -0.000285153 27.8186 0.00101262 27.8377C-0.00033754 27.8568 -0.00033754 27.876 0.00101262 27.8951C0.00101262 27.8951 0.00101262 27.8951 0.00101262 27.917C0.00101262 29.802 0.749837 31.6099 2.08275 32.9428C3.41567 34.2757 5.22349 35.0245 7.10852 35.0245C8.99354 35.0245 10.8014 34.2757 12.1343 32.9428C13.4672 31.6099 14.216 29.802 14.216 27.917C14.216 27.917 14.216 27.9006 14.216 27.8951C14.2174 27.876 14.2174 27.8568 14.216 27.8377C14.2173 27.8186 14.2173 27.7994 14.216 27.7803C14.216 27.7803 14.216 27.7803 14.216 27.7585L7.77006 6.77766L13.292 5.75527C13.6082 6.77295 14.287 7.63913 15.1996 8.18941C16.1122 8.73969 17.1951 8.93577 18.2427 8.74042C19.2919 8.55076 20.2358 7.98436 20.8967 7.1477C21.5577 6.31103 21.8903 5.26174 21.832 4.19709L27.0724 3.22664L20.785 23.9614C20.785 23.9614 20.785 23.9778 20.785 23.9833C20.7837 24.0024 20.7837 24.0216 20.785 24.0407C20.7836 24.0598 20.7836 24.079 20.785 24.0981C20.785 24.0981 20.785 24.0981 20.785 24.12C20.785 26.005 21.5338 27.8128 22.8667 29.1457C24.1996 30.4786 26.0075 31.2275 27.8925 31.2275C29.7775 31.2275 31.5853 30.4786 32.9183 29.1457C34.2512 27.8128 35 26.005 35 24.12C35 24.12 34.9535 24.1036 34.9535 24.0981ZM31.5529 23.5732L28.2315 20.2546C28.129 20.1528 27.9905 20.0956 27.846 20.0956C27.7016 20.0956 27.563 20.1528 27.4606 20.2546L24.1392 23.5732H22.0233L27.846 4.40485L33.6687 23.5732H31.5529ZM30.0056 23.5732H25.6864L27.846 21.4136L30.0056 23.5732ZM10.5775 27.4004C10.4416 26.5682 10.0142 25.8114 9.37171 25.2653C8.7292 24.7193 7.91346 24.4194 7.07025 24.4194C6.22703 24.4194 5.41129 24.7193 4.76879 25.2653C4.12628 25.8114 3.69888 26.5682 3.56297 27.4004H1.24756L7.07025 8.23196L12.8929 27.4004H10.5775ZM9.46766 27.4004H4.67283C4.79782 26.8581 5.10294 26.3743 5.53836 26.0278C5.97378 25.6813 6.5138 25.4927 7.07025 25.4927C7.62669 25.4927 8.16671 25.6813 8.60213 26.0278C9.03755 26.3743 9.34267 26.8581 9.46766 27.4004ZM7.07025 33.9611C5.56982 33.9612 4.12355 33.4004 3.01539 32.3888C1.90723 31.3773 1.21721 29.988 1.08081 28.4938H13.0597C12.9233 29.988 12.2333 31.3773 11.1251 32.3888C10.0169 33.4004 8.57067 33.9612 7.07025 33.9611ZM18.0459 7.6661C17.4081 7.78092 16.7506 7.70428 16.1564 7.44585C15.5621 7.18742 15.0577 6.75877 14.7068 6.21398C14.3559 5.6692 14.1742 5.03268 14.1846 4.38475C14.1951 3.73682 14.3972 3.10649 14.7655 2.5733C15.0086 2.21653 15.3205 1.91187 15.6829 1.67717C16.0453 1.44247 16.4509 1.28244 16.8759 1.20647C17.0682 1.17317 17.263 1.15671 17.4581 1.15726C18.225 1.15892 18.967 1.42918 19.5553 1.92109C20.1436 2.413 20.541 3.09547 20.6784 3.84991C20.8347 4.70499 20.6453 5.58718 20.1517 6.30271C19.6581 7.01823 18.9007 7.5086 18.0459 7.6661ZM27.846 30.134C26.3456 30.1341 24.8993 29.5733 23.7912 28.5617C22.683 27.5502 21.993 26.1609 21.8566 24.6667H33.8355C33.6991 26.1609 33.009 27.5502 31.9009 28.5617C30.7927 29.5733 29.3465 30.1341 27.846 30.134Z"/>
</mask>
<path d="M34.9535 24.0981C34.9549 24.079 34.9549 24.0598 34.9535 24.0407C34.9548 24.0216 34.9548 24.0024 34.9535 23.9833C34.9535 23.9833 34.9535 23.9833 34.9535 23.9614L28.3928 2.36554C28.3928 2.36554 28.3928 2.36554 28.3928 2.35187C28.3772 2.30303 28.3542 2.25691 28.3244 2.21519V2.19605C28.2968 2.16019 28.2646 2.12803 28.2287 2.10038L28.2069 2.08124C28.1673 2.05347 28.1241 2.03139 28.0784 2.01563H28.0456C27.9826 1.98857 27.9145 1.97551 27.846 1.97736C27.8169 1.97454 27.7876 1.97454 27.7585 1.97736L21.6352 3.11183C21.3247 2.08163 20.6454 1.20201 19.7272 0.641177C18.8089 0.0803412 17.7162 -0.122356 16.6579 0.071844C15.5996 0.266044 14.65 0.843515 13.9908 1.69383C13.3315 2.54415 13.0087 3.60764 13.0843 4.68095L6.97183 5.80448L6.91443 5.82088C6.90535 5.81968 6.89616 5.81968 6.88709 5.82088C6.83959 5.83757 6.79454 5.86055 6.75314 5.88922L6.73401 5.90562C6.69541 5.93603 6.66054 5.9709 6.63013 6.0095C6.60034 6.0522 6.57729 6.09922 6.56179 6.14892C6.56179 6.14892 6.56179 6.14892 6.56179 6.16259L0.00101262 27.7585C0.00101262 27.7585 0.00101262 27.7749 0.00101262 27.7803C-0.000285153 27.7994 -0.000285153 27.8186 0.00101262 27.8377C-0.00033754 27.8568 -0.00033754 27.876 0.00101262 27.8951C0.00101262 27.8951 0.00101262 27.8951 0.00101262 27.917C0.00101262 29.802 0.749837 31.6099 2.08275 32.9428C3.41567 34.2757 5.22349 35.0245 7.10852 35.0245C8.99354 35.0245 10.8014 34.2757 12.1343 32.9428C13.4672 31.6099 14.216 29.802 14.216 27.917C14.216 27.917 14.216 27.9006 14.216 27.8951C14.2174 27.876 14.2174 27.8568 14.216 27.8377C14.2173 27.8186 14.2173 27.7994 14.216 27.7803C14.216 27.7803 14.216 27.7803 14.216 27.7585L7.77006 6.77766L13.292 5.75527C13.6082 6.77295 14.287 7.63913 15.1996 8.18941C16.1122 8.73969 17.1951 8.93577 18.2427 8.74042C19.2919 8.55076 20.2358 7.98436 20.8967 7.1477C21.5577 6.31103 21.8903 5.26174 21.832 4.19709L27.0724 3.22664L20.785 23.9614C20.785 23.9614 20.785 23.9778 20.785 23.9833C20.7837 24.0024 20.7837 24.0216 20.785 24.0407C20.7836 24.0598 20.7836 24.079 20.785 24.0981C20.785 24.0981 20.785 24.0981 20.785 24.12C20.785 26.005 21.5338 27.8128 22.8667 29.1457C24.1996 30.4786 26.0075 31.2275 27.8925 31.2275C29.7775 31.2275 31.5853 30.4786 32.9183 29.1457C34.2512 27.8128 35 26.005 35 24.12C35 24.12 34.9535 24.1036 34.9535 24.0981ZM31.5529 23.5732L28.2315 20.2546C28.129 20.1528 27.9905 20.0956 27.846 20.0956C27.7016 20.0956 27.563 20.1528 27.4606 20.2546L24.1392 23.5732H22.0233L27.846 4.40485L33.6687 23.5732H31.5529ZM30.0056 23.5732H25.6864L27.846 21.4136L30.0056 23.5732ZM10.5775 27.4004C10.4416 26.5682 10.0142 25.8114 9.37171 25.2653C8.7292 24.7193 7.91346 24.4194 7.07025 24.4194C6.22703 24.4194 5.41129 24.7193 4.76879 25.2653C4.12628 25.8114 3.69888 26.5682 3.56297 27.4004H1.24756L7.07025 8.23196L12.8929 27.4004H10.5775ZM9.46766 27.4004H4.67283C4.79782 26.8581 5.10294 26.3743 5.53836 26.0278C5.97378 25.6813 6.5138 25.4927 7.07025 25.4927C7.62669 25.4927 8.16671 25.6813 8.60213 26.0278C9.03755 26.3743 9.34267 26.8581 9.46766 27.4004ZM7.07025 33.9611C5.56982 33.9612 4.12355 33.4004 3.01539 32.3888C1.90723 31.3773 1.21721 29.988 1.08081 28.4938H13.0597C12.9233 29.988 12.2333 31.3773 11.1251 32.3888C10.0169 33.4004 8.57067 33.9612 7.07025 33.9611ZM18.0459 7.6661C17.4081 7.78092 16.7506 7.70428 16.1564 7.44585C15.5621 7.18742 15.0577 6.75877 14.7068 6.21398C14.3559 5.6692 14.1742 5.03268 14.1846 4.38475C14.1951 3.73682 14.3972 3.10649 14.7655 2.5733C15.0086 2.21653 15.3205 1.91187 15.6829 1.67717C16.0453 1.44247 16.4509 1.28244 16.8759 1.20647C17.0682 1.17317 17.263 1.15671 17.4581 1.15726C18.225 1.15892 18.967 1.42918 19.5553 1.92109C20.1436 2.413 20.541 3.09547 20.6784 3.84991C20.8347 4.70499 20.6453 5.58718 20.1517 6.30271C19.6581 7.01823 18.9007 7.5086 18.0459 7.6661ZM27.846 30.134C26.3456 30.1341 24.8993 29.5733 23.7912 28.5617C22.683 27.5502 21.993 26.1609 21.8566 24.6667H33.8355C33.6991 26.1609 33.009 27.5502 31.9009 28.5617C30.7927 29.5733 29.3465 30.1341 27.846 30.134Z" fill="#3D619B" stroke="#3D619B" stroke-width="4" mask="url(#path-1-inside-1)"/>
</svg>
