<svg width="328" height="120" viewBox="0 0 328 120" fill="none" xmlns="http://www.w3.org/2000/svg">
<path d="M310.477 6.72403C310.377 6.5508 310.314 6.24097 310.35 6.10438C310.497 5.55801 310.967 5.17153 311.513 5.3181C315.138 5.99757 318.646 5.47438 322.427 5.02447C322.737 4.96116 323.197 5.1577 323.347 5.41755C323.546 5.76401 323.61 6.07384 323.45 6.397C321.691 9.95177 320.728 14.0862 320.145 17.0779C319.999 17.6242 319.529 18.0107 318.983 17.8642C318.436 17.7176 318.05 17.2479 318.197 16.7015C318.669 14.1196 319.436 10.4449 320.848 7.09006C317.686 7.41334 314.388 7.69999 311.087 7.18041C310.95 7.14377 310.627 6.98388 310.477 6.72403Z" fill="#D62828"/>
<path d="M1 113.5C36.5 128.5 78.5 103.5 78.5 81C78.5 67 70 52.9562 52.5 57C37.0822 60.5627 29.9906 76.7007 34 88.9178C37.5 99.5826 48.4974 119.527 107 107.5C165.312 95.5124 319.393 8.04381 322.5 6.5" stroke="#D62828" stroke-width="2"/>
</svg>
